<?xml version="1.0" standalone="no"?>
<!DOCTYPE svg PUBLIC "-//W3C//DTD SVG 20010904//EN"
 "http://www.w3.org/TR/2001/REC-SVG-20010904/DTD/svg10.dtd">
<svg version="1.0" xmlns="http://www.w3.org/2000/svg"
 width="136.000000pt" height="161.000000pt" viewBox="0 0 136.000000 161.000000"
 preserveAspectRatio="xMidYMid meet">

<g transform="translate(0.000000,161.000000) scale(0.100000,-0.100000)"
fill="#000000" stroke="none">
<path d="M535 1504 c-82 -52 -234 -147 -338 -210 l-187 -116 2 -361 3 -360
110 -68 c61 -38 113 -69 118 -69 4 0 7 108 7 241 -1 133 0 243 2 245 2 2 102
-60 221 -138 l217 -140 193 121 c105 66 251 158 322 204 l130 83 3 127 c1 70
0 127 -3 127 -4 0 -157 -95 -566 -351 l-76 -47 -56 36 c-31 21 -57 40 -57 43
0 3 142 95 315 203 173 109 317 201 320 205 2 5 -36 34 -85 65 -76 48 -92 55
-110 46 -11 -6 -160 -98 -331 -205 l-310 -195 -55 37 c-32 22 -51 40 -46 45 5
5 101 67 213 137 l204 128 3 132 c1 72 -1 131 -5 131 -4 -1 -75 -44 -158 -96z"/>
<path d="M1242 724 l-92 -56 0 -175 c0 -137 3 -173 13 -167 6 5 49 32 95 61
l82 53 0 170 c0 94 -1 170 -3 170 -1 0 -44 -25 -95 -56z"/>
<path d="M480 296 l0 -125 100 -65 c56 -36 105 -66 111 -66 6 0 56 28 110 62
l99 61 0 129 c0 70 -2 128 -5 128 -2 0 -49 -27 -105 -61 l-101 -61 -97 57
c-53 32 -100 60 -104 62 -5 2 -8 -52 -8 -121z"/>
</g>
</svg>
